<svg viewBox="0 0 384.97 384.97">
  <g>
    <path d="m12.03 120.3h360.91c6.641 0 12.03-5.39 12.03-12.03 0-6.641-5.39-12.03-12.03-12.03h-360.91c-6.641 0-12.03 5.39-12.03 12.03s5.39 12.03 12.03 12.03z" />
    <path d="m 374.77508,181.73436 -305.855927,0 c -5.627966,0 -10.194916,4.81903 -10.194916,10.75564 0,5.93661 4.567797,10.75564 10.194916,10.75564 l 305.855927,0 c 5.62797,0 10.19492,-4.81903 10.19492,-10.75564 0,-5.93661 -4.56695,-10.75564 -10.19492,-10.75564 z" />
    <path d="m372.94 264.67h-240.61c-6.641 0-12.03 5.39-12.03 12.03 0 6.641 5.39 12.03 12.03 12.03h240.61c6.641 0 12.03-5.39 12.03-12.03 1e-3 -6.641-5.389-12.03-12.03-12.03z" />
  </g>
</svg>